<svg width="24" height="24" viewBox="0 0 24 24" fill="none" xmlns="http://www.w3.org/2000/svg">
    <path d="M15 21V4.5C15 3.67157 14.3284 3 13.5 3H10.5C9.67157 3 9 3.67157 9 4.5V21M15 21H9M15 21V11M9 21V7" stroke="var(--icon-primary-color, #CBFBF1)" stroke-width="1.5"
          stroke-linecap="round" stroke-linejoin="round"/>
    <path d="M6 7H4.5C3.67157 7 3 7.67157 3 8.5V19.5C3 20.3284 3.67157 21 4.5 21H6M18 11H19.5C20.3284 11 21 11.6716 21 12.5V19.5C21 20.3284 20.3284 21 19.5 21H18"
          stroke="var(--icon-secondary-color, #022F2E)" stroke-width="1.5" stroke-linecap="round" stroke-linejoin="round"/>
</svg>
