<svg width="24" height="24" viewBox="0 0 24 24" fill="none" xmlns="http://www.w3.org/2000/svg">
    <path d="M20.4 3H3.6C3.03995 3 2.75992 3 2.54601 3.10899C2.35785 3.20487 2.20487 3.35785 2.10899 3.54601C2 3.75992 2 4.03995 2 4.6V6.4C2 6.96005 2 7.24008 2.10899 7.45399C2.20487 7.64215 2.35785 7.79513 2.54601 7.89101C2.7376 7.98863 2.98223 7.99881 3.4336 7.99988C3.48618 8 3.54157 8 3.6 8H20.4C20.4389 8 20.4764 8 20.5127 7.99996C20.5573 7.99992 20.5999 7.99982 20.6407 7.9996C21.0451 7.99739 21.2732 7.98313 21.454 7.89101C21.6422 7.79513 21.7951 7.64215 21.891 7.45399C22 7.24008 22 6.96005 22 6.4V4.6C22 4.03995 22 3.75992 21.891 3.54601C21.7951 3.35785 21.6422 3.20487 21.454 3.10899C21.2401 3 20.9601 3 20.4 3Z"
          fill="var(--icon-primary-color, #CDC4D8)"/>
    <path fill-rule="evenodd" clip-rule="evenodd"
          d="M20.5 16.2V8L20.5127 7.99996C20.4764 8 20.4389 8 20.4 8H3.6L3.4336 7.99988L3.5 8V16.2C3.5 17.8802 3.5 18.7202 3.82698 19.362C4.1146 19.9265 4.57354 20.3854 5.13803 20.673C5.77976 21 6.61984 21 8.3 21H15.7C17.3802 21 18.2202 21 18.862 20.673C19.4265 20.3854 19.8854 19.9265 20.173 19.362C20.5 18.7202 20.5 17.8802 20.5 16.2ZM12 17C13.6569 17 15 15.6569 15 14C15 12.3431 13.6569 11 12 11C10.3431 11 9 12.3431 9 14C9 15.6569 10.3431 17 12 17Z"
          fill="var(--icon-primary-color, #CDC4D8)"/>
    <path d="M3.6 8H20.4C20.4389 8 20.4764 8 20.5127 7.99996M3.6 8C3.54157 8 3.48618 8 3.4336 7.99988M3.6 8L3.4336 7.99988M3.4336 7.99988C2.98223 7.99881 2.7376 7.98863 2.54601 7.89101C2.35785 7.79513 2.20487 7.64215 2.10899 7.45399C2 7.24008 2 6.96005 2 6.4V4.6C2 4.03995 2 3.75992 2.10899 3.54601C2.20487 3.35785 2.35785 3.20487 2.54601 3.10899C2.75992 3 3.03995 3 3.6 3H20.4C20.9601 3 21.2401 3 21.454 3.10899C21.6422 3.20487 21.7951 3.35785 21.891 3.54601C22 3.75992 22 4.03995 22 4.6V6.4C22 6.96005 22 7.24008 21.891 7.45399C21.7951 7.64215 21.6422 7.79513 21.454 7.89101C21.2732 7.98313 21.0451 7.99739 20.6407 7.9996M3.4336 7.99988L3.5 8V16.2C3.5 17.8802 3.5 18.7202 3.82698 19.362C4.1146 19.9265 4.57354 20.3854 5.13803 20.673C5.77976 21 6.61984 21 8.3 21H15.7C17.3802 21 18.2202 21 18.862 20.673C19.4265 20.3854 19.8854 19.9265 20.173 19.362C20.5 18.7202 20.5 17.8802 20.5 16.2V8L20.5127 7.99996M20.6407 7.9996L20.5127 7.99996M20.6407 7.9996C20.5999 7.99982 20.5573 7.99992 20.5127 7.99996M15 14C15 15.6569 13.6569 17 12 17C10.3431 17 9 15.6569 9 14C9 12.3431 10.3431 11 12 11C13.6569 11 15 12.3431 15 14Z"
          stroke="var(--icon-secondary-color, #1A0C21)" stroke-width="1.5" stroke-linecap="round" stroke-linejoin="round"/>
</svg>
