<svg width="24" height="24" viewBox="0 0 24 24" fill="none" xmlns="http://www.w3.org/2000/svg">
    <path d="M2 6.45074C2 4.54495 3.59188 3 5.55556 3H14.4444C16.4081 3 18 4.54495 18 6.45074V11.6269C18 13.5327 16.4081 15.0776 14.4444 15.0776H11.2268C11.0091 15.0776 10.799 15.1551 10.6363 15.2955L7.62861 17.8902C7.34198 18.1375 6.88889 17.94 6.88889 17.5678V15.9403C6.88889 15.4638 6.49092 15.0776 6 15.0776H5.55556C3.59188 15.0776 2 13.5327 2 11.6269V6.45074Z"
          fill="var(--icon-primary-color, #CBFBF1)"/>
    <path d="M12.0507 17.6178C12.2679 18.549 13.1576 19.2465 14.2222 19.2465H16.2332C16.3693 19.2465 16.5006 19.293 16.6023 19.3773L18.4821 20.9341C18.6613 21.0824 18.9444 20.964 18.9444 20.7406V19.7641C18.9444 19.4783 19.1932 19.2465 19.5 19.2465H19.7778C21.0051 19.2465 22 18.3196 22 17.1761V14.0704C22 13.2279 21.4599 12.503 20.6847 12.1797M7.62861 17.8902L10.6363 15.2955C10.799 15.1551 11.0091 15.0776 11.2268 15.0776H14.4444C16.4081 15.0776 18 13.5327 18 11.6269V6.45074C18 4.54495 16.4081 3 14.4444 3H5.55556C3.59188 3 2 4.54495 2 6.45074V11.6269C2 13.5327 3.59188 15.0776 5.55556 15.0776H6C6.49092 15.0776 6.88889 15.4638 6.88889 15.9403V17.5678C6.88889 17.94 7.34198 18.1375 7.62861 17.8902Z"
          stroke="var(--icon-secondary-color, #022F2E)" stroke-width="1.5" stroke-linecap="round"/>
</svg>
