<svg width="24" height="24" viewBox="0 0 24 24" fill="none" xmlns="http://www.w3.org/2000/svg">
    <path d="M17.5 19.4545V15.25C17.5 14.5596 18.0596 14 18.75 14C19.4404 14 20 14.5596 20 15.25V19.5C20 20.8807 18.8807 22 17.5 22C16.1193 22 15 20.8807 15 19.5V17.8182"
          stroke="var(--icon-primary-color, #00D5BE)" stroke-width="1.5" stroke-linecap="round" stroke-linejoin="round"/>
    <path d="M12 22.75C12.4142 22.75 12.75 22.4142 12.75 22C12.75 21.5858 12.4142 21.25 12 21.25V22.75ZM6.73005 21.455L7.07054 20.7868L7.07054 20.7868L6.73005 21.455ZM4.54497 19.27L5.21322 18.9295L5.21322 18.9295L4.54497 19.27ZM17.27 2.54497L17.6104 1.87671L17.6104 1.87671L17.27 2.54497ZM19.455 4.73005L20.1233 4.38955L20.1233 4.38955L19.455 4.73005ZM6.73005 2.54497L7.07054 3.21322L7.07054 3.21322L6.73005 2.54497ZM4.54497 4.73005L5.21322 5.07054L5.21322 5.07054L4.54497 4.73005ZM19.25 11C19.25 11.4142 19.5858 11.75 20 11.75C20.4142 11.75 20.75 11.4142 20.75 11H19.25ZM8 7.25C7.58579 7.25 7.25 7.58579 7.25 8C7.25 8.41421 7.58579 8.75 8 8.75V7.25ZM16 8.75C16.4142 8.75 16.75 8.41421 16.75 8C16.75 7.58579 16.4142 7.25 16 7.25V8.75ZM8 10.75C7.58579 10.75 7.25 11.0858 7.25 11.5C7.25 11.9142 7.58579 12.25 8 12.25V10.75ZM12 12.25C12.4142 12.25 12.75 11.9142 12.75 11.5C12.75 11.0858 12.4142 10.75 12 10.75V12.25ZM4 14H4.75V10H4H3.25V14H4ZM12 22V21.25C10.5875 21.25 9.57322 21.2494 8.77708 21.1844C7.9897 21.12 7.48197 20.9964 7.07054 20.7868L6.73005 21.455L6.38955 22.1233C7.04768 22.4586 7.77479 22.6075 8.65494 22.6794C9.52632 22.7506 10.6122 22.75 12 22.75V22ZM4 14H3.25C3.25 15.3878 3.24942 16.4737 3.32061 17.3451C3.39252 18.2252 3.54138 18.9523 3.87671 19.6104L4.54497 19.27L5.21322 18.9295C5.00359 18.518 4.87996 18.0103 4.81563 17.2229C4.75058 16.4268 4.75 15.4125 4.75 14H4ZM6.73005 21.455L7.07054 20.7868C6.27085 20.3793 5.62068 19.7291 5.21322 18.9295L4.54497 19.27L3.87671 19.6104C4.42798 20.6924 5.30762 21.572 6.38955 22.1233L6.73005 21.455ZM12 2V2.75C13.4125 2.75 14.4268 2.75058 15.2229 2.81563C16.0103 2.87996 16.518 3.00359 16.9295 3.21322L17.27 2.54497L17.6104 1.87671C16.9523 1.54138 16.2252 1.39252 15.3451 1.32061C14.4737 1.24942 13.3878 1.25 12 1.25V2ZM20 10H20.75C20.75 8.61224 20.7506 7.52632 20.6794 6.65494C20.6075 5.77479 20.4586 5.04768 20.1233 4.38955L19.455 4.73005L18.7868 5.07054C18.9964 5.48197 19.12 5.9897 19.1844 6.77708C19.2494 7.57322 19.25 8.58749 19.25 10H20ZM17.27 2.54497L16.9295 3.21322C17.7291 3.62068 18.3793 4.27085 18.7868 5.07054L19.455 4.73005L20.1233 4.38955C19.572 3.30762 18.6924 2.42798 17.6104 1.87671L17.27 2.54497ZM12 2V1.25C10.6122 1.25 9.52632 1.24942 8.65494 1.32061C7.77479 1.39252 7.04768 1.54138 6.38955 1.87671L6.73005 2.54497L7.07054 3.21322C7.48197 3.00359 7.9897 2.87996 8.77708 2.81563C9.57322 2.75058 10.5875 2.75 12 2.75V2ZM4 10H4.75C4.75 8.58749 4.75058 7.57322 4.81563 6.77708C4.87996 5.9897 5.00359 5.48197 5.21322 5.07054L4.54497 4.73005L3.87671 4.38955C3.54138 5.04768 3.39252 5.77479 3.32061 6.65494C3.24942 7.52632 3.25 8.61224 3.25 10H4ZM6.73005 2.54497L6.38955 1.87671C5.30762 2.42798 4.42798 3.30762 3.87671 4.38955L4.54497 4.73005L5.21322 5.07054C5.62068 4.27085 6.27085 3.62068 7.07054 3.21322L6.73005 2.54497ZM20 10H19.25V11H20H20.75V10H20ZM8 8V8.75H16V8V7.25H8V8ZM8 11.5V12.25H12V11.5V10.75H8V11.5Z"
          fill="var(--icon-secondary-color, #022F2E)"/>
</svg>
