<svg width="24" height="24" viewBox="0 0 24 24" fill="none" xmlns="http://www.w3.org/2000/svg">
    <path d="M13.5456 5H10.4544C7.83871 5 6.53087 5 5.50432 5.49743C4.60049 5.9354 3.84953 6.63709 3.34981 7.51059C2.78225 8.5027 2.68907 9.81181 2.50271 12.43L2.25754 15.8745C2.13732 17.5634 3.47026 19 5.15754 19C6.0204 19 6.83867 18.6154 7.39106 17.9502L7.7649 17.5C8.10686 17.0882 8.27784 16.8823 8.47252 16.7159C8.88066 16.3672 9.37474 16.1349 9.90302 16.0436C10.155 16 10.4221 16 10.9562 16H13.0438C13.5779 16 13.845 16 14.097 16.0436C14.6253 16.1349 15.1193 16.3672 15.5275 16.7159C15.7222 16.8823 15.8932 17.0882 16.2351 17.5L16.6089 17.9502C17.1613 18.6154 17.9796 19 18.8425 19C20.5297 19 21.8627 17.5634 21.7425 15.8745L21.4973 12.43C21.3109 9.81181 21.2178 8.5027 20.6502 7.51059C20.1505 6.63709 19.3995 5.9354 18.4957 5.49743C17.4691 5 16.1613 5 13.5456 5Z"
          stroke="var(--icon-secondary-color, #3C0366)" stroke-width="1.5" stroke-linecap="round" stroke-linejoin="round"/>
    <path d="M6.02106 11H10.007M8.01404 9V13M14.9895 12H14.9995M17.979 10H17.9889" stroke="var(--icon-primary-color, #9810FA)" stroke-width="1.5" stroke-linecap="round"
          stroke-linejoin="round"/>
</svg>