<svg width="24" height="24" viewBox="0 0 24 24" fill="none" xmlns="http://www.w3.org/2000/svg">
    <path d="M10.0124 8.73501C9.99107 8.74944 9.96987 8.76406 9.94882 8.77887C9.54355 7.55758 9.42597 6.24139 9.93103 4.9864C10.2185 4.3019 10.7079 3.72046 11.3328 3.32093C11.9577 2.92139 12.6879 2.7231 13.4244 2.75293C14.1608 2.78277 14.868 3.03929 15.4498 3.48771C16.0317 3.93613 16.4601 4.55475 16.6771 5.25969C17.3237 4.897 18.0637 4.74148 18.7967 4.81421C19.5298 4.88694 20.2204 5.1844 20.775 5.66625C21.3296 6.14811 21.7212 6.79104 21.8969 7.50786C22.0725 8.22468 22.0236 8.9807 21.7569 9.67341C20.8941 11.8173 18.5902 12.8485 16.5957 13.3444"
          stroke="var(--icon-primary-color, #CBFBF1)" stroke-width="1.5" stroke-linecap="round" stroke-linejoin="round"/>
    <path d="M16.3464 11.036C16.5954 11.8081 16.6617 12.5841 16.5954 13.3445C16.2301 17.5339 11.8415 21.2501 11.8415 21.2501C11.8415 21.2501 3.81849 20.5573 2.19714 15.5307C1.93619 14.6793 1.93426 13.7726 2.1916 12.9336C2.44895 12.0945 2.95312 11.3637 3.63575 10.8402C4.31838 10.3167 5.14644 10.0259 6.00763 10.0072C6.86883 9.98848 7.72148 10.2428 8.44997 10.7356C8.74554 9.93919 9.26754 9.25816 9.94849 8.77897C9.96954 8.76416 9.99074 8.74954 10.0121 8.73512C10.7242 8.25406 11.5685 8.01362 12.4305 8.04642C13.2926 8.07921 14.1307 8.38364 14.8312 8.91842C15.5317 9.45321 16.0606 10.1925 16.3464 11.036Z"
          stroke="var(--icon-secondary-color, #022F2E)" stroke-width="1.5" stroke-linecap="round" stroke-linejoin="round"/>
</svg>
