<svg width="24" height="24" viewBox="0 0 24 24" fill="none" xmlns="http://www.w3.org/2000/svg">
    <path d="M21 9.40905C21 16.0913 12 20 12 20C12 20 3 16.0913 3 9.40905C3.01576 8.28249 3.351 7.18843 3.96026 6.27525C4.56951 5.36206 5.4233 4.67394 6.40585 4.30418C7.38839 3.93443 8.45215 3.90094 9.45286 4.20826C10.4536 4.51558 11.3428 5.14883 12 6.02215C12.6572 5.14883 13.5464 4.51558 14.5471 4.20826C15.5479 3.90094 16.6116 3.93443 17.5942 4.30418C18.5767 4.67394 19.4305 5.36206 20.0397 6.27525C20.649 7.18843 20.9842 8.28249 21 9.40905Z"
          fill="var(--icon-fill-color, #FCCEE8)" stroke="var(--icon-stroke-color, #861043)" stroke-width="1.5" stroke-linecap="round" stroke-linejoin="round"/>
    <path d="M15.5 7C17.1569 7 18.5 8.34315 18.5 10" stroke="var(--icon-stroke-color, #861043)" stroke-width="1.5" stroke-linecap="round" stroke-linejoin="round"/>
</svg>