<svg width="24" height="24" viewBox="0 0 24 24" fill="none" xmlns="http://www.w3.org/2000/svg">
    <path d="M22 12C22 17.5228 17.5228 22 12 22C6.47715 22 2 17.5228 2 12C2 6.47715 6.47715 2 12 2C17.5228 2 22 6.47715 22 12Z" fill="var(--icon-secondary-color, #EE7EB)"/>
    <path d="M10 9.00224C10.1762 8.50136 10.524 8.079 10.9817 7.80998C11.4395 7.54095 11.9777 7.4426 12.501 7.53237C13.0243 7.62213 13.499 7.89421 13.8409 8.30041C14.1829 8.70661 14.37 9.22072 14.3692 9.75168C14.3692 11.2506 12.1209 12 12.1209 12V12.8934M12.1499 15.5H12.1599M22 12C22 17.5228 17.5228 22 12 22C6.47715 22 2 17.5228 2 12C2 6.47715 6.47715 2 12 2C17.5228 2 22 6.47715 22 12Z"
          stroke="var(--icon-primary-color, #101828)" stroke-width="1.5" stroke-linecap="round"/>
</svg>