<svg width="25" height="24" viewBox="0 0 25 24" fill="none" xmlns="http://www.w3.org/2000/svg">
    <path fill-rule="evenodd" clip-rule="evenodd"
          d="M11.4453 2.86961L3 8.49981L3.78693 18.7299C3.90716 20.2929 5.21048 21.4998 6.77809 21.4998H9V14.4998C9 13.3952 9.89543 12.4998 11 12.4998H13C14.1046 12.4998 15 13.3952 15 14.4998V21.4998H17.2219C18.7895 21.4998 20.0928 20.2929 20.2131 18.7299L21 8.49981L12.5547 2.86961C12.2188 2.64568 11.7812 2.64568 11.4453 2.86961Z"
          fill="var(--icon-fill-color, #FCCEE8)"/>
    <path d="M15 21.4998V14.4998C15 13.3952 14.1046 12.4998 13 12.4998H11C9.89543 12.4998 9 13.3952 9 14.4998V21.4998M15 21.4998H9M15 21.4998H17.2219M9 21.4998H6.77809M3 8.49981L3.78693 18.7299C3.90716 20.2929 5.21048 21.4998 6.77809 21.4998M3 8.49981L11.4453 2.86961C11.7812 2.64568 12.2188 2.64568 12.5547 2.86961L21 8.49981M3 8.49981L1 9.99981M21 8.49981L20.2131 18.7299C20.0928 20.2929 18.7895 21.4998 17.2219 21.4998M21 8.49981L23.5 9.99981M6.77809 21.4998H17.2219"
          stroke="var(--icon-stroke-color, #861043)" stroke-width="1.5" stroke-linecap="round" stroke-linejoin="round"/>
</svg>