<svg width="24" height="24" viewBox="0 0 24 24" fill="none" xmlns="http://www.w3.org/2000/svg">
    <path d="M10 17.6586V20C10 21.1046 10.8954 22 12 22C13.1046 22 14 21.1046 14 20V17.6586M12 2V3M3 12H2M5.5 5.5L4.8999 4.8999M18.5 5.5L19.1002 4.8999M22 12H21"
          stroke="var(--icon-primary-color, #CBFBF1" stroke-width="1.5" stroke-linecap="round" stroke-linejoin="round"/>
    <path d="M12 18C15.3137 18 18 15.3137 18 12C18 8.68629 15.3137 6 12 6C8.68629 6 6 8.68629 6 12C6 15.3137 8.68629 18 12 18Z" stroke="var(--icon-secondary-color, #666F2E)"
          stroke-width="1.5" stroke-linecap="round" stroke-linejoin="round"/>
</svg>
