<svg width="24" height="24" viewBox="0 0 24 24" fill="none" xmlns="http://www.w3.org/2000/svg">
    <path d="M9.87891 14.1213L4.92916 19.071" stroke="var(--icon-primary-color, #9810FA)" stroke-width="1.5" stroke-linecap="round" stroke-linejoin="round"/>
    <path d="M21.1837 10.1447C21.9139 9.83527 22.2789 9.68055 22.4437 9.42806C22.5878 9.20726 22.6382 8.9375 22.5841 8.67742C22.5221 8.38 22.2389 8.09683 21.6726 7.53048L16.4695 2.32741C15.9032 1.76106 15.62 1.47789 15.3226 1.41595C15.0625 1.36178 14.7927 1.41223 14.5719 1.55632C14.3195 1.72109 14.1647 2.08615 13.8553 2.81627L12.7946 5.31894C12.7496 5.42511 12.7271 5.47819 12.6989 5.52793C12.6738 5.57211 12.6454 5.61428 12.6139 5.65407C12.5784 5.69887 12.5377 5.73957 12.4563 5.82098L10.9497 7.32755C10.8026 7.47464 10.729 7.54819 10.6441 7.60393C10.5687 7.65338 10.4869 7.69235 10.4008 7.71976C10.3038 7.75066 10.1999 7.76161 9.99212 7.78351L7.48168 8.04807C6.41701 8.16028 5.88467 8.21638 5.63679 8.46372C5.42122 8.67883 5.31655 8.98159 5.35247 9.28619C5.39377 9.63644 5.77495 10.0176 6.53729 10.78L13.2201 17.4627C13.9824 18.2251 14.3636 18.6062 14.7138 18.6475C15.0184 18.6835 15.3212 18.5788 15.5363 18.3632C15.7836 18.1153 15.8397 17.583 15.9519 16.5183L16.2165 14.0079C16.2384 13.8001 16.2494 13.6962 16.2802 13.5992C16.3077 13.5131 16.3466 13.4313 16.3961 13.3559C16.4518 13.271 16.5254 13.1974 16.6725 13.0503L18.179 11.5437C18.2604 11.4623 18.3011 11.4216 18.3459 11.3862C18.3857 11.3546 18.4279 11.3262 18.4721 11.3011C18.5218 11.2729 18.5749 11.2504 18.6811 11.2054L21.1837 10.1447Z"
          stroke="var(--icon-secondary-color, #3C0366)" stroke-width="1.5" stroke-linecap="round" stroke-linejoin="round"/>
</svg>