<svg width="24" height="24" viewBox="0 0 24 24" fill="none" xmlns="http://www.w3.org/2000/svg">
    <path d="M17.979 10.1725L18.2446 9.57506C18.6506 8.66153 18.8536 8.20474 18.7735 7.87406C18.7037 7.58613 18.5099 7.34396 18.2442 7.21282C17.9391 7.06222 17.449 7.16025 16.4687 7.35631L15.6985 7.51035C15.2693 7.59618 15.0547 7.6391 14.8602 7.60089C14.6886 7.56717 14.5288 7.48901 14.3968 7.37422C14.2472 7.24415 14.1493 7.04842 13.9536 6.65697L13.4312 5.61218C12.9706 4.69098 12.7403 4.23036 12.4287 4.08255C12.1575 3.95393 11.8428 3.95393 11.5716 4.08255C11.26 4.23036 11.0297 4.69097 10.5691 5.61218L10.0467 6.65696C9.85093 7.04842 9.75307 7.24415 9.6035 7.37422C9.4715 7.48901 9.31169 7.56717 9.14004 7.60089C8.94554 7.6391 8.73096 7.59618 8.30179 7.51035L7.53159 7.35631C6.5513 7.16025 6.06115 7.06222 5.75605 7.21282C5.49039 7.34396 5.29656 7.58613 5.2268 7.87406C5.14668 8.20474 5.34969 8.66152 5.75571 9.57506L6.02125 10.1725C6.19319 10.5594 6.27916 10.7528 6.28633 10.9456C6.29266 11.1157 6.25543 11.2847 6.17818 11.4364C6.09067 11.6083 5.93137 11.7477 5.61276 12.0265L4.67757 12.8448C3.96712 13.4664 3.61189 13.7772 3.54205 14.1008C3.48117 14.3829 3.5451 14.6775 3.71741 14.909C3.9151 15.1745 4.3672 15.3101 5.27141 15.5814L6.35989 15.9079C6.76902 16.0307 6.97358 16.092 7.12523 16.2135C7.25911 16.3207 7.36316 16.4606 7.42738 16.6196C7.50013 16.7998 7.50013 17.0133 7.50013 17.4405V18.5308C7.50013 19.4254 7.50013 19.8727 7.68822 20.1343C7.85232 20.3625 8.10491 20.5111 8.38413 20.5437C8.70414 20.5811 9.09515 20.3639 9.87716 19.9294L11.2231 19.1817C11.5067 19.0241 11.6485 18.9454 11.7987 18.9145C11.9316 18.8871 12.0687 18.8871 12.2016 18.9145C12.3518 18.9454 12.4936 19.0241 12.7772 19.1817L14.1231 19.9294C14.9051 20.3639 15.2961 20.5811 15.6161 20.5437C15.8954 20.5111 16.1479 20.3625 16.3121 20.1343C16.5001 19.8727 16.5001 19.4254 16.5001 18.5308V17.4405C16.5001 17.0133 16.5001 16.7998 16.5729 16.6196C16.6371 16.4606 16.7412 16.3207 16.875 16.2135C17.0267 16.092 17.2313 16.0307 17.6404 15.9079L18.7288 15.5814C19.633 15.3101 20.0852 15.1745 20.2829 14.909C20.4552 14.6775 20.5191 14.3829 20.4582 14.1008C20.3884 13.7772 20.0331 13.4664 19.3227 12.8448L18.3875 12.0265C18.0689 11.7477 17.9096 11.6083 17.8221 11.4364C17.7448 11.2847 17.7076 11.1157 17.7139 10.9456C17.7211 10.7528 17.8071 10.5594 17.979 10.1725Z"
          fill="var(--icon-secondary-color, #024A70)" stroke="var(--icon-primary-color, #DFF2FE)" stroke-width="1.5" stroke-linecap="round" stroke-linejoin="round"/>
</svg>
