<svg width="24" height="24" viewBox="0 0 24 24" fill="none" xmlns="http://www.w3.org/2000/svg">
    <path d="M6 15.25C5.58579 15.25 5.25 15.5858 5.25 16C5.25 16.4142 5.58579 16.75 6 16.75V15.25ZM6.01 16.75C6.42421 16.75 6.76 16.4142 6.76 16C6.76 15.5858 6.42421 15.25 6.01 15.25V16.75ZM14 15.25C13.5858 15.25 13.25 15.5858 13.25 16C13.25 16.4142 13.5858 16.75 14 16.75V15.25ZM18 16.75C18.4142 16.75 18.75 16.4142 18.75 16C18.75 15.5858 18.4142 15.25 18 15.25V16.75ZM6 16V16.75H6.01V16V15.25H6V16ZM5 12V12.75H19V12V11.25H5V12ZM22 15H21.25V17H22H22.75V15H22ZM19 20V19.25H5V20V20.75H19V20ZM2 17H2.75V15H2H1.25V17H2ZM5 20V19.25C3.75736 19.25 2.75 18.2426 2.75 17H2H1.25C1.25 19.0711 2.92893 20.75 5 20.75V20ZM22 17H21.25C21.25 18.2426 20.2426 19.25 19 19.25V20V20.75C21.0711 20.75 22.75 19.0711 22.75 17H22ZM19 12V12.75C20.2426 12.75 21.25 13.7574 21.25 15H22H22.75C22.75 12.9289 21.0711 11.25 19 11.25V12ZM5 12V11.25C2.92893 11.25 1.25 12.9289 1.25 15H2H2.75C2.75 13.7574 3.75736 12.75 5 12.75V12ZM14 16V16.75H18V16V15.25H14V16Z"
          fill="var(--icon-secondary-color, #008236)"/>
    <path d="M6 7.25C5.58579 7.25 5.25 7.58579 5.25 8C5.25 8.41421 5.58579 8.75 6 8.75V7.25ZM6.01 8.75C6.42421 8.75 6.76 8.41421 6.76 8C6.76 7.58579 6.42421 7.25 6.01 7.25V8.75ZM14 7.25C13.5858 7.25 13.25 7.58579 13.25 8C13.25 8.41421 13.5858 8.75 14 8.75V7.25ZM18 8.75C18.4142 8.75 18.75 8.41421 18.75 8C18.75 7.58579 18.4142 7.25 18 7.25V8.75ZM6 8V8.75H6.01V8V7.25H6V8ZM5 4V4.75H19V4V3.25H5V4ZM22 7H21.25V9H22H22.75V7H22ZM19 12V11.25H5V12V12.75H19V12ZM2 9H2.75V7H2H1.25V9H2ZM5 12V11.25C3.75736 11.25 2.75 10.2426 2.75 9H2H1.25C1.25 11.0711 2.92893 12.75 5 12.75V12ZM22 9H21.25C21.25 10.2426 20.2426 11.25 19 11.25V12V12.75C21.0711 12.75 22.75 11.0711 22.75 9H22ZM19 4V4.75C20.2426 4.75 21.25 5.75736 21.25 7H22H22.75C22.75 4.92893 21.0711 3.25 19 3.25V4ZM5 4V3.25C2.92893 3.25 1.25 4.92893 1.25 7H2H2.75C2.75 5.75736 3.75736 4.75 5 4.75V4ZM14 8V8.75H18V8V7.25H14V8Z"
          fill="var(--icon-primary-color, #0D542B)"/>
</svg>
