<svg width="24" height="24" viewBox="0 0 24 24" fill="none" xmlns="http://www.w3.org/2000/svg">
    <path d="M12 16.5C14.4853 16.5 16.5 14.4853 16.5 12C16.5 9.51472 14.4853 7.5 12 7.5C9.51472 7.5 7.5 9.51472 7.5 12C7.5 14.4853 9.51472 16.5 12 16.5Z"
          fill="var(--icon-primary-color, #FEF9C2)"/>
    <path d="M12 3V4.8M12 19.2V21M4.8 12H3M6.8827 6.8827L5.60991 5.60991M17.1173 6.8827L18.3901 5.60991M6.8827 17.121L5.60991 18.3938M17.1173 17.121L18.3901 18.3938M21 12H19.2M16.5 12C16.5 14.4853 14.4853 16.5 12 16.5C9.51472 16.5 7.5 14.4853 7.5 12C7.5 9.51472 9.51472 7.5 12 7.5C14.4853 7.5 16.5 9.51472 16.5 12Z"
          stroke="var(--icon-secondary-color, #733E0A)" stroke-width="1.5" stroke-linecap="round" stroke-linejoin="round"/>
</svg>
