<svg width="25" height="24" viewBox="0 0 25 24" fill="none" xmlns="http://www.w3.org/2000/svg">
    <path d="M16.409 8V5L19.409 2V5H22.409L19.409 8H16.409ZM16.409 8L12.4091 11.9999M12.4091 11.9999L13.4091 13M12.4091 11.9999L11.4091 11"
          stroke="var(--icon-primary-color, #FFB900)" stroke-width="1.5" stroke-linecap="round" stroke-linejoin="round"/>
    <path d="M22.4091 12C22.4091 17.5228 17.9319 22 12.4091 22C6.88624 22 2.40909 17.5228 2.40909 12C2.40909 6.47715 6.88624 2 12.4091 2M17.4091 12C17.4091 14.7614 15.1705 17 12.4091 17C9.64766 17 7.40909 14.7614 7.40909 12C7.40909 9.23858 9.64766 7 12.4091 7"
          stroke="var(--icon-secondary-color, #461901)" stroke-width="1.5" stroke-linecap="round" stroke-linejoin="round"/>
</svg>