<svg width="26" height="26" viewBox="0 0 26 26" fill="none" xmlns="http://www.w3.org/2000/svg">
    <path d="M7 20C7.55556 18 9.22222 16.5001 12 16.5C14.7778 16.5 16.4444 18 17 20" stroke="var(--icon-primary-color, #A684FF)" stroke-width="1.5" stroke-linecap="round"
          stroke-linejoin="round"/>
    <path fill-rule="evenodd" clip-rule="evenodd"
          d="M12.0007 13.8333C13.4733 13.8333 14.6673 12.64 14.6673 11.1667C14.6673 9.69403 13.4733 8.5 12.0007 8.5C10.528 8.5 9.334 9.69403 9.334 11.1667C9.32842 12.6344 10.5134 13.8284 11.9811 13.8333H12.0007Z"
          stroke="var(--icon-primary-color, #A684FF)" stroke-width="1.5" stroke-linecap="round" stroke-linejoin="round"/>
    <path d="M22 14C22 19.5228 17.5228 24 12 24C6.47715 24 2 19.5228 2 14C2 8.47715 6.47715 4 12 4" stroke="var(--icon-secondary-color, #4D179A)" stroke-width="1.5"
          stroke-linecap="round"/>
    <path d="M21.3861 1.79018C21.5491 1.58151 21.8828 1.67092 21.9196 1.93313L22.2567 4.33402C22.2725 4.44636 22.3503 4.54019 22.4578 4.57651L24.8349 5.37981C25.0954 5.46782 25.1101 5.83061 24.8577 5.93949L22.6331 6.89901C22.5234 6.94636 22.4522 7.05435 22.4519 7.17389L22.4473 9.54314C22.4468 9.81193 22.1202 9.94444 21.9325 9.75201L20.179 7.95416C20.1023 7.87552 19.9887 7.84509 19.883 7.87484L17.4654 8.55506C17.2067 8.62786 16.9901 8.34983 17.1241 8.11678L18.3046 6.06263C18.3642 5.95898 18.3566 5.82987 18.2852 5.73398L16.8384 3.79072C16.6742 3.57021 16.8684 3.26341 17.138 3.31741L19.5983 3.81031C19.7095 3.83259 19.8238 3.79023 19.8936 3.70083L21.3861 1.79018Z"
          stroke="var(--icon-primary-color, #A684FF)" stroke-width="1.5"/>
</svg>