<svg width="24" height="24" viewBox="0 0 24 24" fill="none" xmlns="http://www.w3.org/2000/svg">
    <path d="M4 4C4 2.89543 4.89543 2 6 2H18C19.1046 2 20 2.89543 20 4V18C20 19.1046 19.1046 20 18 20H6C4.89543 20 4 19.1046 4 18V4Z" fill="url(#paint0_linear_72_85)"/>
    <rect x="4" y="16" width="16" height="6" rx="2" fill="url(#paint1_linear_72_85)"/>
    <path d="M3.99957 19C3.99925 18.5 4.00001 18.8802 4.00001 17.2V6.8C4.00001 5.11984 4.00001 4.27976 4.32699 3.63803C4.61461 3.07354 5.07355 2.6146 5.63804 2.32698C6.27977 2 7.11985 2 8.80001 2H16.8C17.9201 2 18.4802 2 18.908 2.21799C19.2843 2.40973 19.5903 2.71569 19.782 3.09202C20 3.51984 20 4.07989 20 5.2V18.8"
          stroke="url(#paint2_linear_72_85)" stroke-width="1.5" stroke-linecap="round" stroke-linejoin="round"/>
    <path d="M20 18.8C20 19.9201 20 20.4802 19.782 20.908C19.5903 21.2843 19.2843 21.5903 18.908 21.782C18.4802 22 17.9201 22 16.8 22H8.8C7.11984 22 6.27976 22 5.63803 21.673C5.07354 21.3854 4.6146 20.9265 4.32698 20.362C4 19.7202 4 19 4 19C4 17.3431 5.34315 16 7 16H20V19"
          stroke="url(#paint3_linear_72_85)" stroke-width="1.5" stroke-linecap="round" stroke-linejoin="round"/>
    <defs>
        <linearGradient id="paint0_linear_72_85" x1="5" y1="3.5" x2="20" y2="19.5" gradientUnits="userSpaceOnUse">
            <stop stop-color="#C0F8FF"/>
            <stop offset="1" stop-color="#FF7BFD"/>
        </linearGradient>
        <linearGradient id="paint1_linear_72_85" x1="5" y1="16.5" x2="7.85291" y2="25.6293" gradientUnits="userSpaceOnUse">
            <stop stop-color="#FFDE9D"/>
            <stop offset="1" stop-color="#B5F9FF"/>
        </linearGradient>
        <linearGradient id="paint2_linear_72_85" x1="-1.5" y1="1" x2="25.5" y2="20" gradientUnits="userSpaceOnUse">
            <stop stop-color="#C30F4E"/>
            <stop offset="1" stop-color="#F6C9E7"/>
        </linearGradient>
        <linearGradient id="paint3_linear_72_85" x1="21.5" y1="22" x2="-9.68575e-07" y2="16" gradientUnits="userSpaceOnUse">
            <stop stop-color="#F38F12"/>
            <stop offset="1" stop-color="#EA4681"/>
        </linearGradient>
    </defs>
</svg>
